<?xml version="1.0" encoding="utf-8"?>
<!-- Generator: Adobe Illustrator 26.0.1, SVG Export Plug-In . SVG Version: 6.00 Build 0)  -->
<svg version="1.1" id="Layer_1" xmlns="http://www.w3.org/2000/svg" xmlns:xlink="http://www.w3.org/1999/xlink" x="0px" y="0px"
	 viewBox="0 0 140 74.31" style="enable-background:new 0 0 140 74.31;" xml:space="preserve">
<style type="text/css">
	.st0{fill:#FFFFFF;fill-opacity:0.4;}
</style>
<path class="st0" d="M29.57,54.97c-5.43,0-9.66,4.23-9.66,9.67c0,5.44,4.22,9.67,9.66,9.67s9.66-4.23,9.66-9.67
	C39.22,59.2,35,54.97,29.57,54.97z M86.9,0h-4.83v11.78h18.1L86.9,0z M0.6,66.45h12.07c0,0,0.6-18.12,18.1-18.12
	c12.97,0,15.09,18.12,15.09,18.12h30.17V0H0L0.6,66.45z M114.65,54.97c-5.43,0-9.65,4.23-9.65,9.67c0,5.44,4.22,9.67,9.65,9.67
	c5.43,0,9.66-4.23,9.66-9.67C124.31,59.2,119.78,54.97,114.65,54.97z M103.19,15.1H82.07v51.35h18.1c0,0-2.41-15.1,15.09-15.1
	c13.28,0,12.97,15.1,12.97,15.1h11.16L140,43.8L103.19,15.1z M100.17,54.37H88.1v-6.04h12.07V54.37z M98.97,43.5L86.9,36.25V19.33
	h12.07l31.38,24.16H98.97z"/>
</svg>
